<svg width="120" height="33" viewBox="0 0 120 33" fill="none" xmlns="http://www.w3.org/2000/svg">
<g clip-path="url(#clip0_36_40)">
<path fill-rule="evenodd" clip-rule="evenodd" d="M19.3486 15.2222C19.3173 11.7906 22.1978 10.1208 22.3302 10.0429C20.6983 7.69686 18.1699 7.37673 17.2814 7.35077C15.1576 7.13047 13.0977 8.604 12.0156 8.604C10.9121 8.604 9.24687 7.37273 7.45055 7.40867C5.14043 7.44328 2.97873 8.76307 1.79338 10.8116C-0.653175 14.9893 1.17176 21.1283 3.51516 24.5053C4.68786 26.1585 6.05756 28.0054 7.85121 27.9402C9.6056 27.869 10.2612 26.8374 12.3783 26.8374C14.4761 26.8374 15.0917 27.9402 16.9206 27.8989C18.8041 27.869 19.9888 26.2377 21.1203 24.5692C22.4753 22.6737 23.0197 20.8068 23.041 20.711C22.9971 20.6957 19.3845 19.336 19.3486 15.2222ZM15.8937 5.12983C16.8375 3.96512 17.483 2.38245 17.304 0.775146C15.9383 0.835046 14.2298 1.70692 13.2468 2.845C12.3763 3.84865 11.5989 5.49256 11.7999 7.03863C13.334 7.15177 14.9094 6.27524 15.8937 5.12983ZM40.5396 21.7938L39.325 18.0934C39.1966 17.7154 38.9556 16.8249 38.6002 15.4239H38.557C38.3416 16.3168 38.1142 17.2067 37.8748 18.0934L36.6815 21.7938H40.5396ZM44.7393 27.7026H42.2874L40.9443 23.5403H36.2761L34.9963 27.7026H32.609L37.2345 13.5317H40.0911L44.7393 27.7026ZM54.2892 22.5512C54.2892 21.5562 54.0623 20.7363 53.6064 20.0914C53.1092 19.4178 52.4403 19.0817 51.6031 19.0817C51.0347 19.0817 50.5182 19.2688 50.0577 19.6388C49.5958 20.0115 49.2936 20.4974 49.1525 21.1003C49.0806 21.3819 49.0454 21.6115 49.0454 21.7925V23.4963C49.0454 24.2397 49.2763 24.8674 49.7382 25.3798C50.2001 25.8916 50.8004 26.1472 51.5392 26.1472C52.4064 26.1472 53.0806 25.8171 53.5638 25.1589C54.047 24.5 54.2892 23.6308 54.2892 22.5512ZM56.634 22.4681C56.634 24.2058 56.1581 25.5795 55.2057 26.5878C54.3525 27.4856 53.2936 27.9342 52.029 27.9342C50.6646 27.9342 49.6843 27.4504 49.0873 26.4833H49.044V31.8663H46.7419V20.8481C46.7419 19.7559 46.7133 18.6345 46.6567 17.4844H48.6813L48.8098 19.1037H48.853C49.6204 17.8837 50.7858 17.2748 52.3491 17.2748C53.5711 17.2748 54.5914 17.7506 55.4073 18.7037C56.226 19.6574 56.634 20.912 56.634 22.4681ZM66.2052 22.5512C66.2052 21.5562 65.9776 20.7363 65.5217 20.0914C65.0239 19.4178 64.3583 19.0817 63.5191 19.0817C62.95 19.0817 62.4349 19.2688 61.973 19.6388C61.5111 20.0115 61.2096 20.4974 61.0678 21.1003C60.998 21.3819 60.9614 21.6115 60.9614 21.7925V23.4963C60.9614 24.2397 61.1923 24.8674 61.6522 25.3798C62.1147 25.8903 62.7144 26.1472 63.4558 26.1472C64.3224 26.1472 64.9972 25.8171 65.4798 25.1589C65.9636 24.5 66.2052 23.6308 66.2052 22.5512ZM68.5506 22.4681C68.5506 24.2058 68.0741 25.5795 67.121 26.5878C66.2691 27.4856 65.2096 27.9342 63.9457 27.9342C62.5813 27.9342 61.6003 27.4504 61.0039 26.4833H60.9614V31.8663H58.6592V20.8481C58.6592 19.7559 58.6306 18.6345 58.574 17.4844H60.5986L60.7271 19.1037H60.7703C61.5371 17.8837 62.7018 17.2748 64.2665 17.2748C65.4871 17.2748 66.5074 17.7506 67.326 18.7037C68.1413 19.6574 68.5506 20.912 68.5506 22.4681ZM81.8736 23.7286C81.8736 24.9339 81.4489 25.9149 80.597 26.6723C79.6613 27.4996 78.3581 27.9129 76.6836 27.9129C75.1376 27.9129 73.8976 27.6187 72.9599 27.0297L73.493 25.1376C74.5039 25.7406 75.6127 26.0427 76.8207 26.0427C77.6873 26.0427 78.3621 25.849 78.8473 25.4637C79.3298 25.0777 79.5708 24.5605 79.5708 23.915C79.5708 23.3399 79.3718 22.8554 78.9738 22.4627C78.5771 22.0701 77.9156 21.704 76.9911 21.3666C74.4753 20.4415 73.2188 19.0857 73.2188 17.3034C73.2188 16.1387 73.6594 15.183 74.5412 14.4395C75.4197 13.6954 76.5931 13.3241 78.0593 13.3241C79.3664 13.3241 80.4526 13.5484 81.3198 13.9963L80.7441 15.8478C79.9342 15.4132 79.019 15.1956 77.9941 15.1956C77.1848 15.1956 76.5518 15.3926 76.0986 15.7846C75.7152 16.1354 75.5229 16.562 75.5229 17.0678C75.5229 17.6282 75.7425 18.0914 76.1825 18.4555C76.5658 18.7922 77.262 19.1563 78.2723 19.549C79.5089 20.0401 80.4167 20.6138 81.001 21.2721C81.5827 21.9283 81.8729 22.7496 81.8729 23.7286H81.8736ZM89.4841 19.1882H86.947V24.1492C86.947 25.4111 87.3936 26.0414 88.2901 26.0414C88.7014 26.0414 89.0422 26.0068 89.3124 25.9362L89.3763 27.66C88.9224 27.8277 88.3254 27.9116 87.586 27.9116C86.6768 27.9116 85.9667 27.638 85.4536 27.0916C84.9431 26.5445 84.6862 25.6261 84.6862 24.3362V19.1862H83.1747V17.4824H84.6855V15.6109L86.947 14.9387V17.4824H89.4841V19.1882ZM98.5436 22.5832C98.5436 21.6408 98.3392 20.8328 97.9259 20.1579C97.4434 19.3426 96.7532 18.936 95.8594 18.936C94.9343 18.936 94.2315 19.3433 93.749 20.1579C93.335 20.8335 93.1313 21.6541 93.1313 22.6258C93.1313 23.5682 93.335 24.3762 93.749 25.049C94.2461 25.865 94.9416 26.2717 95.8388 26.2717C96.7173 26.2717 97.4075 25.8564 97.9053 25.0278C98.3299 24.3409 98.5436 23.5243 98.5436 22.5832ZM100.932 22.51C100.932 24.0807 100.476 25.3698 99.5672 26.3782C98.6135 27.4164 97.3482 27.9342 95.7709 27.9342C94.2508 27.9342 93.0401 27.4364 92.1377 26.442C91.2352 25.4477 90.7839 24.1925 90.7839 22.679C90.7839 21.095 91.2485 19.7985 92.1803 18.7896C93.1094 17.7806 94.3639 17.2754 95.9413 17.2754C97.4614 17.2754 98.6847 17.7726 99.6085 18.7683C100.491 19.7346 100.932 20.9812 100.932 22.5093V22.51ZM108.414 19.4811C108.174 19.4383 107.931 19.4171 107.688 19.4178C106.878 19.4178 106.253 19.7193 105.811 20.323C105.429 20.8554 105.236 21.529 105.236 22.3409V27.7026H102.936L102.957 20.7023C102.957 19.5243 102.928 18.4528 102.871 17.4851H104.876L104.96 19.4405H105.024C105.267 18.7683 105.65 18.2278 106.175 17.8219C106.687 17.4565 107.242 17.2748 107.839 17.2748C108.052 17.2748 108.243 17.2894 108.414 17.316V19.4811ZM116.513 21.521C116.529 20.8488 116.378 20.2671 116.067 19.7759C115.668 19.1443 115.056 18.8295 114.232 18.8295C113.48 18.8295 112.868 19.137 112.4 19.7546C112.017 20.2458 111.789 20.8341 111.719 21.5203H116.513V21.521ZM118.708 22.11C118.708 22.5166 118.682 22.8601 118.625 23.1396H111.719C111.745 24.1492 112.08 24.9213 112.72 25.4537C113.303 25.9296 114.055 26.1685 114.979 26.1685C116.002 26.1685 116.935 26.0074 117.773 25.6847L118.134 27.2607C117.154 27.6826 115.996 27.8929 114.661 27.8929C113.055 27.8929 111.793 27.4257 110.876 26.494C109.96 25.5622 109.501 24.311 109.501 22.7416C109.501 21.2008 109.927 19.9177 110.782 18.8947C111.676 17.8019 112.883 17.2555 114.404 17.2555C115.897 17.2555 117.027 17.8012 117.795 18.8941C118.403 19.7619 118.708 20.8355 118.708 22.11ZM38.5849 4.84365C38.5849 4.03168 38.3673 3.40872 37.9307 2.97412C37.4948 2.54085 36.8578 2.32388 36.0186 2.32388C35.6625 2.32388 35.3597 2.34717 35.1074 2.39576V7.60235C35.2472 7.62365 35.5014 7.63296 35.8722 7.63296C36.7374 7.63296 37.4062 7.39536 37.8768 6.92083C38.348 6.44562 38.5849 5.75345 38.5849 4.84431V4.84365ZM39.7783 4.81303C39.7783 6.06693 39.3969 7.01001 38.6362 7.64361C37.9307 8.22863 36.929 8.52147 35.6312 8.52147C35.0783 8.52616 34.5256 8.49839 33.976 8.43828V1.58911C34.6208 1.4897 35.2724 1.44141 35.9247 1.44469C37.1613 1.44469 38.0931 1.70958 38.7214 2.24002C39.4255 2.83901 39.7783 3.69691 39.7783 4.81237V4.81303ZM44.9303 5.94447C44.9303 5.48124 44.8291 5.08391 44.6268 4.75313C44.3899 4.35247 44.0518 4.15214 43.6125 4.15214C43.1579 4.15214 42.8118 4.35181 42.5742 4.75247C42.3719 5.08391 42.2714 5.48723 42.2714 5.96443C42.2714 6.42765 42.3726 6.82499 42.5749 7.15576C42.8198 7.55643 43.1606 7.75676 43.6012 7.75676C44.0338 7.75676 44.3725 7.5531 44.6161 7.14512C44.8258 6.80768 44.9303 6.40769 44.9303 5.94447ZM46.1043 5.90786C46.1043 6.6799 45.8807 7.31217 45.4334 7.80867C44.9649 8.31914 44.3439 8.57338 43.5692 8.57338C42.8218 8.57338 42.2268 8.32979 41.7829 7.83995C41.3403 7.35077 41.1193 6.73447 41.1193 5.99105C41.1193 5.21369 41.347 4.5761 41.8049 4.08093C42.2628 3.58576 42.8777 3.33751 43.6531 3.33751C44.4005 3.33751 45.0008 3.5811 45.4554 4.06961C45.8873 4.54482 46.1043 5.15845 46.1043 5.90786ZM54.5861 3.43934L52.9934 8.45957H51.9571L51.2969 6.2799C51.1327 5.74669 50.9963 5.20531 50.8883 4.65796H50.8676C50.7699 5.20765 50.6332 5.74967 50.4583 6.2799L49.7575 8.45957H48.7099L47.2124 3.43934H48.3752L48.9509 5.826C49.09 6.39038 49.2044 6.92815 49.2963 7.43663H49.3162C49.4008 7.01733 49.5405 6.48289 49.7369 5.83665L50.459 3.44067H51.3808L52.0729 5.7854C52.2407 6.35777 52.3764 6.90818 52.4809 7.43796H52.5122C52.5977 6.88126 52.7132 6.3296 52.8583 5.7854L53.4759 3.44067H54.5867V3.43934H54.5861ZM60.4515 8.45957H59.3201V5.5844C59.3201 4.69856 58.9793 4.2553 58.2952 4.2553C57.9591 4.2553 57.6875 4.37643 57.4772 4.62069C57.2703 4.85921 57.1585 5.16554 57.1631 5.48124V8.45824H56.0316V4.87426C56.0316 4.433 56.0177 3.95514 55.9904 3.43734H56.9847L57.0379 4.22269H57.0692C57.201 3.97843 57.3973 3.77677 57.6549 3.61638C57.9638 3.42805 58.3194 3.33027 58.6812 3.33418C59.1564 3.33418 59.5511 3.48526 59.8659 3.78875C60.2565 4.16079 60.4515 4.7152 60.4515 5.45262V8.45957ZM62.4415 8.45957H63.5723V1.13654H62.4415V8.45957ZM69.0591 5.94447C69.0591 5.48124 68.9573 5.08391 68.7556 4.75313C68.5193 4.35247 68.1799 4.15214 67.742 4.15214C67.2861 4.15214 66.9406 4.35181 66.7037 4.75247C66.5014 5.08391 66.4009 5.48723 66.4009 5.96443C66.4009 6.42765 66.502 6.82499 66.7044 7.15576C66.9493 7.55643 67.2901 7.75676 67.7307 7.75676C68.1633 7.75676 68.5007 7.5531 68.7449 7.14512C68.9553 6.80768 69.0591 6.40769 69.0591 5.94447ZM70.2338 5.90786C70.2338 6.6799 70.0102 7.31217 69.5629 7.80867C69.0944 8.31914 68.4727 8.57338 67.6987 8.57338C66.95 8.57338 66.3556 8.32979 65.913 7.83995C65.4698 7.35077 65.2488 6.73447 65.2488 5.99105C65.2488 5.21369 65.4764 4.5761 65.9343 4.08093C66.3922 3.58576 67.0072 3.33751 67.7819 3.33751C68.53 3.33751 69.129 3.5811 69.5849 4.06961C70.0168 4.54482 70.2338 5.15845 70.2338 5.90786ZM74.5352 6.73381V5.9611C73.2867 5.93981 72.663 6.27724 72.663 6.97274C72.663 7.2343 72.7342 7.43064 72.88 7.56108C73.0258 7.6922 73.2114 7.75742 73.4324 7.75742C73.6807 7.75742 73.9129 7.67955 74.1246 7.52514C74.2524 7.43704 74.3566 7.31897 74.4282 7.18124C74.4998 7.04352 74.5365 6.89035 74.5352 6.73514V6.73381ZM75.7099 8.46024H74.6936L74.6098 7.88188H74.5778C74.2304 8.3431 73.7352 8.57405 73.0916 8.57405C72.6111 8.57405 72.2224 8.42164 71.9296 8.11948C71.664 7.84461 71.5316 7.50252 71.5316 7.0972C71.5316 6.48356 71.7905 6.01635 72.3116 5.69289C72.8321 5.36877 73.5642 5.21036 74.5066 5.21769V5.12318C74.5066 4.46162 74.1552 4.13151 73.4497 4.13151C72.9479 4.13151 72.5046 4.25663 72.1233 4.50355L71.893 3.77078C72.3655 3.48193 72.9499 3.33751 73.6387 3.33751C74.9692 3.33751 75.636 4.02968 75.636 5.41402V7.26225C75.636 7.76408 75.6613 8.16341 75.7093 8.45957L75.7099 8.46024ZM80.9664 6.34246V5.5052C80.9664 5.36078 80.9558 5.24364 80.9351 5.15379C80.8742 4.89054 80.7308 4.65362 80.5258 4.4776C80.316 4.29619 80.0464 4.19897 79.7691 4.20472C79.3471 4.20472 79.017 4.36911 78.7734 4.70055C78.5332 5.03133 78.4107 5.45462 78.4107 5.97109C78.4107 6.46692 78.5265 6.86958 78.7588 7.17972C79.0037 7.50984 79.3338 7.67489 79.7478 7.67489C80.1192 7.67489 80.416 7.53712 80.6416 7.26159C80.8599 7.00668 80.9664 6.70053 80.9664 6.34246ZM82.1391 8.45891H81.1348L81.0816 7.65359H81.0509C80.7302 8.26657 80.1837 8.57338 79.4164 8.57338C78.8027 8.57338 78.2916 8.33578 77.8876 7.86125C77.4823 7.38604 77.2806 6.76975 77.2806 6.01235C77.2806 5.20038 77.5002 4.54149 77.9402 4.039C78.3661 3.57045 78.8892 3.33618 79.5109 3.33618C80.1944 3.33618 80.6729 3.56313 80.9451 4.0177H80.9664V1.13654H82.0992V7.10784C82.0992 7.59636 82.1125 8.04694 82.1391 8.46024V8.45891ZM90.6435 5.94447C90.6435 5.48124 90.5423 5.08391 90.34 4.75313C90.1017 4.35247 89.765 4.15214 89.3244 4.15214C88.8705 4.15214 88.5257 4.35181 88.2861 4.75247C88.0838 5.08391 87.9833 5.48723 87.9833 5.96443C87.9833 6.42765 88.0845 6.82499 88.2868 7.15576C88.5317 7.55643 88.8725 7.75676 89.3137 7.75676C89.745 7.75676 90.0858 7.5531 90.3294 7.14512C90.5377 6.80768 90.6435 6.40769 90.6435 5.94447ZM91.8162 5.90786C91.8162 6.6799 91.5926 7.31217 91.1453 7.80867C90.6768 8.31914 90.0572 8.57338 89.2811 8.57338C88.535 8.57338 87.94 8.32979 87.4955 7.83995C87.0529 7.35077 86.8312 6.73447 86.8312 5.99105C86.8312 5.21369 87.0589 4.5761 87.5168 4.08093C87.9747 3.58576 88.5903 3.33751 89.3663 3.33751C90.1124 3.33751 90.7141 3.5811 91.1673 4.06961C91.5992 4.54482 91.8162 5.15845 91.8162 5.90786ZM97.9007 8.45957H96.7692V5.5844C96.7692 4.69856 96.4285 4.2553 95.7429 4.2553C95.4068 4.2553 95.136 4.37643 94.9263 4.62069C94.719 4.85895 94.6071 5.16546 94.6122 5.48124V8.45824H93.4801V4.87426C93.4801 4.433 93.4668 3.95514 93.4401 3.43734H94.4331L94.4864 4.22269H94.5177C94.6508 3.97843 94.8465 3.77677 95.1034 3.61638C95.4126 3.42816 95.7683 3.33039 96.1303 3.33418C96.6042 3.33418 96.9995 3.48526 97.3136 3.78875C97.7063 4.16079 97.9 4.7152 97.9 5.45262V8.45957H97.9007ZM105.515 4.27527H104.269V6.71384C104.269 7.33413 104.49 7.64361 104.928 7.64361C105.132 7.64361 105.3 7.62697 105.433 7.5917L105.462 8.43828C105.238 8.52147 104.945 8.56274 104.583 8.56274C104.136 8.56274 103.789 8.42829 103.537 8.16008C103.284 7.89186 103.159 7.44062 103.159 6.80702V4.27527H102.415V3.43934H103.159V2.51955L104.268 2.18944V3.43867H105.514V4.27527H105.515H105.515ZM111.504 8.45957H110.372V5.6057C110.372 4.70588 110.031 4.2553 109.347 4.2553C108.823 4.2553 108.465 4.5162 108.268 5.03799C108.231 5.16843 108.213 5.30365 108.215 5.43931V8.45824H107.085V1.13654H108.216V4.16146H108.237C108.594 3.61105 109.104 3.33618 109.766 3.33618C110.235 3.33618 110.623 3.48726 110.931 3.79075C111.313 4.16878 111.506 4.73117 111.506 5.47459V8.45957H111.504ZM116.604 5.42334C116.613 5.09256 116.539 4.80704 116.385 4.56611C116.189 4.25663 115.89 4.10089 115.484 4.10089C115.115 4.10089 114.814 4.25197 114.584 4.55546C114.392 4.80715 114.276 5.10812 114.249 5.42334H116.605H116.604ZM117.684 5.71219C117.684 5.91185 117.669 6.08024 117.642 6.21801H114.249C114.263 6.71384 114.426 7.09187 114.74 7.3541C115.027 7.58837 115.397 7.70551 115.851 7.70551C116.352 7.70551 116.81 7.62697 117.223 7.46791L117.4 8.24327C116.917 8.44959 116.35 8.55342 115.692 8.55342C114.903 8.55342 114.283 8.32447 113.834 7.86657C113.383 7.40867 113.159 6.79371 113.159 6.023C113.159 5.26561 113.367 4.63533 113.787 4.13284C114.226 3.59641 114.819 3.32753 115.567 3.32753C116.299 3.32753 116.855 3.59641 117.231 4.13284C117.534 4.55879 117.683 5.08591 117.683 5.71219" fill="white"/>
</g>
<defs>
<clipPath id="clip0_36_40">
<rect width="119.133" height="31.9464" fill="white" transform="translate(0.131653 0.144775)"/>
</clipPath>
</defs>
</svg>
