<svg width="127" height="31" viewBox="0 0 127 31" fill="none" xmlns="http://www.w3.org/2000/svg">
<g clip-path="url(#clip0_36_44)">
<path fill-rule="evenodd" clip-rule="evenodd" d="M1.44787 1.50115C1.12374 1.82727 1.01526 2.47818 1.01526 3.02127V26.8186C1.01526 27.3624 1.23156 27.9055 1.44787 28.3401L1.55635 28.4486L14.9658 15.0837V14.7576L1.44853 1.50049L1.44787 1.50115Z" fill="url(#paint0_linear_36_44)"/>
<path fill-rule="evenodd" clip-rule="evenodd" d="M19.3994 19.4297L14.9655 14.9745V14.6484L19.3994 10.1938L19.5072 10.303L24.8063 13.3452C26.3204 14.2144 26.3204 15.6274 24.8063 16.4966L19.3994 19.4303V19.4297Z" fill="url(#paint1_linear_36_44)"/>
<path fill-rule="evenodd" clip-rule="evenodd" d="M19.5074 19.4296L14.8578 14.866L1.44836 28.3387C2.09727 28.8824 3.07031 28.8824 3.71922 28.4478L19.5074 19.4296Z" fill="url(#paint2_linear_36_44)"/>
<path fill-rule="evenodd" clip-rule="evenodd" d="M19.5072 10.3024L3.61191 1.39207C2.96233 0.957463 1.98797 0.957463 1.33972 1.50122L14.857 14.8668L19.5072 10.3031V10.3024Z" fill="url(#paint3_linear_36_44)"/>
<path fill-rule="evenodd" clip-rule="evenodd" d="M41.5682 4.32568C41.5682 5.08641 41.2434 5.95561 40.8108 6.4987C40.4984 6.8106 40.1274 7.05762 39.7192 7.22553C39.311 7.39344 38.8735 7.47893 38.4321 7.47706C37.5669 7.47706 36.5932 7.15094 36.0528 6.4987C35.296 5.84646 34.9713 4.97792 34.9713 4.10805C34.9713 3.13036 35.296 2.26115 35.945 1.71806C36.5932 1.06582 37.4584 0.631221 38.3236 0.739705C38.7562 0.739705 39.1888 0.84819 39.6214 1.06582C39.9456 1.28346 40.3782 1.39194 40.703 1.82655L40.1619 2.15267C39.6741 1.66563 39.0129 1.39204 38.3236 1.39194C37.5669 1.39194 36.918 1.71806 36.3769 2.26115C35.8915 2.75329 35.6197 3.41685 35.6202 4.10805C35.6202 4.76029 35.945 5.52101 36.3769 5.95561C36.8649 6.44281 37.5263 6.71641 38.2158 6.71633C38.9725 6.71633 39.5136 6.39022 40.0541 5.95561C40.3782 5.52101 40.5945 4.97726 40.703 4.54265H38.3236V3.7826H41.4597C41.5682 3.99956 41.5682 4.2172 41.5682 4.32568ZM46.5418 1.60958H43.6227V3.7826H46.2184V4.54265H43.6227V6.60785H46.5418V7.36791H42.7568V0.84819H46.5418V1.60958ZM50.0027 7.36791H49.1375V1.60958H47.2992V0.84819H51.7331V1.60958H49.8949V7.36857L50.0027 7.36791ZM55.0855 7.36791V0.84819H55.9507V7.25942C55.8422 7.36791 55.0855 7.36791 55.0855 7.36791ZM58.762 7.36791V1.60958H56.9244V0.84819H61.3583V1.60958H59.52C59.6278 1.60958 59.6278 7.36857 59.6278 7.36857H58.7626L58.762 7.36791ZM69.9006 6.4987C68.6028 7.80318 66.5482 7.80318 65.0341 6.4987C64.4062 5.86193 64.0564 5.00228 64.0611 4.10805C64.0611 3.23884 64.3852 2.26115 65.0341 1.71806C66.4404 0.305102 68.4949 0.305102 69.9006 1.60891C70.5284 2.24568 70.8783 3.10533 70.8736 3.99956C70.8736 4.97792 70.5495 5.84713 69.9006 6.4987ZM65.683 5.95561C66.656 6.93397 68.2786 6.93397 69.1439 5.95561C69.6294 5.46331 69.9013 4.79948 69.9006 4.10805C69.9006 3.45581 69.5758 2.80424 69.1439 2.26115C68.1702 1.28279 66.5482 1.28279 65.683 2.26115C65.1977 2.75329 64.9258 3.41685 64.9263 4.10805C64.9263 4.76029 65.2504 5.41252 65.683 5.95561ZM72.0636 7.36791V0.84819H73.1445L76.2805 5.84646V0.84819H77.1458V7.25942H76.2805L72.9282 1.93503V7.15027L72.063 7.36791H72.0636Z" fill="white" stroke="white" stroke-width="0.560673"/>
<path fill-rule="evenodd" clip-rule="evenodd" d="M63.9527 16.7129C61.3571 16.7129 59.411 18.7774 59.5195 21.385C59.6273 23.9933 61.574 25.9494 64.169 25.8402C66.6562 25.8402 68.6029 23.7757 68.6029 21.2765C68.6029 18.7774 66.6562 16.7129 63.9527 16.7129ZM63.9527 24.1018C62.4393 24.2109 61.1414 23.0156 61.033 21.4942C60.9251 19.9727 62.1145 18.6689 63.6286 18.5604C65.1427 18.4513 66.4405 19.6466 66.5484 21.168V21.3857C66.6562 22.798 65.4668 24.1018 63.9527 24.1018ZM53.8963 16.7129C51.3006 16.7129 49.3539 18.7774 49.4624 21.385C49.4624 23.9933 51.5169 25.9494 54.1126 25.8402C56.5997 25.8402 58.5458 23.7757 58.5458 21.2765C58.5458 18.7774 56.4912 16.7129 53.8963 16.7129ZM53.8963 24.1018C52.3821 24.2109 51.0843 23.0156 50.9765 21.4942C50.868 19.9727 52.0574 18.6689 53.5721 18.5604C55.0856 18.4513 56.3834 19.6466 56.4912 21.168V21.3857C56.4912 22.798 55.4097 24.1018 53.8956 24.1018H53.8963ZM41.8924 18.1252V20.0819H46.6511C46.5426 21.0596 46.2185 21.9288 45.5689 22.581C44.5959 23.5587 43.2981 24.1018 42.0009 23.9933C39.189 23.8848 37.0259 21.3857 37.1344 18.5604C37.2422 15.9521 39.4053 13.6706 42.0009 13.6706C43.2987 13.6706 44.5966 14.1052 45.4611 15.0829L46.8667 13.7791C45.5689 12.4746 43.7307 11.8231 42.0009 11.8231C38.1075 11.6061 34.8636 14.7568 34.6466 18.6689C34.431 22.581 37.567 25.8402 41.4598 26.0578H42.0009C43.8392 26.1663 45.6774 25.4056 46.9752 24.1018C48.273 22.4719 48.9213 20.408 48.5972 18.3428H41.8924V18.1258V18.1252ZM90.988 19.6466C90.4475 17.9082 88.8249 16.8213 86.9867 16.7129C84.608 16.7129 82.6606 18.5604 82.6606 21.0589V21.2765C82.5528 23.7757 84.4995 25.8402 86.9867 25.9487H87.203C88.7171 25.9487 90.2313 25.1886 91.0965 23.9933L89.4739 22.9065C89.0412 23.6672 88.176 24.1018 87.203 24.1018C86.7301 24.103 86.2664 23.9713 85.8649 23.7215C85.4633 23.4718 85.1401 23.1142 84.9321 22.6895L91.0958 20.0812L90.988 19.6466ZM84.7158 21.168C84.608 19.7558 85.6889 18.5604 87.0952 18.5604H87.203C87.9597 18.4513 88.6086 18.8865 88.9334 19.5388L84.7158 21.168ZM79.633 25.6232H81.5798V12.1492H79.633V25.6232ZM76.3892 17.7997C75.6318 17.1475 74.7672 16.7129 73.7935 16.7129C71.1979 16.8213 69.3603 18.995 69.4681 21.6026C69.5759 23.9933 71.4148 25.8402 73.7942 25.9487C74.7672 25.9487 75.6318 25.6232 76.2807 24.8625H76.3892V25.5147C76.6055 26.8186 75.7403 28.0139 74.4424 28.1224H74.0098C72.9283 28.1224 72.0638 27.4701 71.6311 26.4924L69.9007 27.2532C70.5496 28.8831 72.1716 29.9699 74.0098 29.9699C76.3892 29.9699 78.3359 28.557 78.3359 25.1886V17.039H76.3892V17.7997ZM74.0098 24.1025C72.4964 23.9933 71.4142 22.6895 71.4142 21.168C71.5227 19.7558 72.6042 18.5604 74.0098 18.5604C75.4161 18.6689 76.6055 19.7558 76.497 21.2765V21.3857C76.6055 22.9065 75.5239 24.1018 74.0098 24.1018V24.1025ZM100.396 12.1492H95.5297V25.6232H97.4764V20.5158H100.288C102.559 20.7334 104.505 18.8865 104.722 16.6044C104.938 14.3222 103.1 12.3668 100.828 12.1492H100.396H100.396ZM100.396 18.6689H97.5842V13.9968H100.396C101.694 13.9968 102.776 15.0829 102.776 16.2783C102.776 17.5827 101.802 18.6689 100.396 18.6689ZM113.048 16.7129C111.535 16.6044 110.128 17.4736 109.48 18.7774L111.318 19.5381C111.643 18.8859 112.399 18.4513 113.157 18.5598C114.238 18.4513 115.211 19.212 115.32 20.2988V20.4073C114.671 20.0812 113.913 19.8642 113.157 19.9727C111.318 19.9727 109.263 21.0596 109.263 23.0156C109.372 24.754 110.777 26.0578 112.616 25.9493H112.724C113.806 26.0578 114.671 25.5147 115.32 24.6449H115.428V25.7317H117.374V20.5158C117.158 18.1258 115.319 16.7129 113.048 16.7129ZM112.724 24.1018C111.967 24.2109 111.318 23.7757 111.102 23.0156C111.102 21.9288 112.183 21.6026 113.265 21.6026C113.913 21.6026 114.563 21.8203 115.103 22.0373C114.995 23.2326 113.913 24.1018 112.724 24.1018ZM124.187 17.039L121.808 22.798L119.429 17.039H117.266L120.835 25.1886L118.78 29.7523H120.943L126.566 17.039H124.187ZM106.019 25.6232H107.966V12.1492H106.019V25.6232Z" fill="white"/>
</g>
<defs>
<linearGradient id="paint0_linear_36_44" x1="13.595" y1="26.9591" x2="-7.84254" y2="21.2408" gradientUnits="userSpaceOnUse">
<stop stop-color="#4998D3"/>
<stop offset="0.01" stop-color="#4A99D3"/>
<stop offset="0.26" stop-color="#42BAEB"/>
<stop offset="0.51" stop-color="#41C7F2"/>
<stop offset="0.76" stop-color="#56C9E9"/>
<stop offset="1" stop-color="#5BCAE8"/>
</linearGradient>
<linearGradient id="paint1_linear_36_44" x1="26.6623" y1="14.8503" x2="0.493789" y2="14.8503" gradientUnits="userSpaceOnUse">
<stop stop-color="#FEE000"/>
<stop offset="0.41" stop-color="#FEBD11"/>
<stop offset="0.78" stop-color="#FAA51A"/>
<stop offset="1" stop-color="#F99B1C"/>
</linearGradient>
<linearGradient id="paint2_linear_36_44" x1="7.87556" y1="21.2889" x2="-9.32084" y2="-7.60421" gradientUnits="userSpaceOnUse">
<stop stop-color="#EF4149"/>
<stop offset="1" stop-color="#C31E63"/>
</linearGradient>
<linearGradient id="paint3_linear_36_44" x1="-10.9571" y1="27.2141" x2="-3.46123" y2="14.2551" gradientUnits="userSpaceOnUse">
<stop stop-color="#32A072"/>
<stop offset="0.07" stop-color="#2CA772"/>
<stop offset="0.48" stop-color="#4BBA71"/>
<stop offset="0.8" stop-color="#5EBD6B"/>
<stop offset="1" stop-color="#66BE69"/>
</linearGradient>
<clipPath id="clip0_36_44">
<rect width="126.454" height="29.9497" fill="white" transform="translate(0.552612 0.0788574)"/>
</clipPath>
</defs>
</svg>
