<svg width="27" height="27" viewBox="0 0 27 27" fill="none" xmlns="http://www.w3.org/2000/svg">
<path fill-rule="evenodd" clip-rule="evenodd" d="M13.7803 0.541016C10.2429 0.541016 9.79891 0.556483 8.40956 0.619709C7.02293 0.683207 6.07643 0.902735 5.24825 1.22484C4.39157 1.55752 3.66488 2.00255 2.9409 2.7268C2.21637 3.45078 1.77135 4.17748 1.43758 5.03388C1.11466 5.86233 0.894863 6.8091 0.832451 8.19519C0.77031 9.58454 0.754028 10.0288 0.754028 13.5662C0.754028 17.1036 0.769767 17.5462 0.832722 18.9355C0.896491 20.3222 1.11602 21.2687 1.43785 22.0968C1.7708 22.9535 2.21583 23.6802 2.94008 24.4042C3.66379 25.1287 4.39049 25.5748 5.24662 25.9075C6.07535 26.2296 7.02211 26.4491 8.40848 26.5126C9.79783 26.5759 10.2415 26.5913 13.7786 26.5913C17.3163 26.5913 17.7589 26.5759 19.1483 26.5126C20.5349 26.4491 21.4825 26.2296 22.3112 25.9075C23.1676 25.5748 23.8932 25.1287 24.6169 24.4042C25.3415 23.6802 25.7865 22.9535 26.1202 22.0971C26.4404 21.2686 26.6602 20.3219 26.7254 18.9358C26.7878 17.5464 26.8041 17.1036 26.8041 13.5662C26.8041 10.0288 26.7878 9.58481 26.7254 8.19546C26.6602 6.80883 26.4404 5.86233 26.1202 5.03415C25.7865 4.17748 25.3415 3.45078 24.6169 2.7268C23.8924 2.00228 23.1679 1.55725 22.3104 1.22484C21.48 0.902735 20.533 0.683207 19.1464 0.619709C17.757 0.556483 17.3147 0.541016 13.7762 0.541016H13.7803ZM12.6121 2.88746C12.9589 2.88692 13.3458 2.88746 13.7805 2.88746C17.2583 2.88746 17.6705 2.89994 19.0438 2.96236C20.3137 3.02043 21.003 3.23263 21.4621 3.41091C22.07 3.64699 22.5033 3.9292 22.9589 4.38508C23.4148 4.84096 23.697 5.27513 23.9336 5.88297C24.1119 6.34157 24.3244 7.03082 24.3822 8.30077C24.4446 9.67384 24.4582 10.0863 24.4582 13.5624C24.4582 17.0385 24.4446 17.4509 24.3822 18.824C24.3241 20.094 24.1119 20.7832 23.9336 21.2418C23.6976 21.8496 23.4148 22.2825 22.9589 22.7381C22.5031 23.1939 22.0702 23.4762 21.4621 23.7122C21.0035 23.8913 20.3137 24.103 19.0438 24.1611C17.6707 24.2235 17.2583 24.237 13.7805 24.237C10.3026 24.237 9.89036 24.2235 8.5173 24.1611C7.24734 24.1024 6.5581 23.8902 6.09869 23.712C5.49085 23.4759 5.05668 23.1937 4.6008 22.7378C4.14492 22.2819 3.8627 21.8488 3.62608 21.2407C3.4478 20.7821 3.23533 20.0929 3.17753 18.8229C3.11511 17.4499 3.10263 17.0374 3.10263 13.5591C3.10263 10.0809 3.11511 9.67058 3.17753 8.29751C3.2356 7.02756 3.4478 6.33831 3.62608 5.87918C3.86216 5.27134 4.14492 4.83716 4.6008 4.38128C5.05668 3.9254 5.49085 3.64319 6.09869 3.40657C6.55782 3.22747 7.24734 3.01581 8.5173 2.95747C9.71887 2.9032 10.1845 2.88692 12.6121 2.8842V2.88746ZM20.7335 5.04986C19.8705 5.04986 19.1704 5.74915 19.1704 6.61233C19.1704 7.47525 19.8705 8.17535 20.7335 8.17535C21.5964 8.17535 22.2965 7.47525 22.2965 6.61233C22.2965 5.74942 21.5964 5.04932 20.7335 5.04932V5.04986ZM13.7804 6.87844C10.0864 6.87844 7.09143 9.87341 7.09143 13.5674C7.09143 17.2614 10.0864 20.255 13.7804 20.255C17.4744 20.255 20.4683 17.2614 20.4683 13.5674C20.4683 9.87341 17.4741 6.87844 13.7801 6.87844H13.7804ZM13.7802 9.22603C16.1779 9.22603 18.1219 11.1698 18.1219 13.5677C18.1219 15.9655 16.1779 17.9095 13.7802 17.9095C11.3822 17.9095 9.43848 15.9655 9.43848 13.5677C9.43848 11.1698 11.3822 9.22603 13.7802 9.22603Z" fill="white"/>
</svg>
