<svg width="127" height="31" viewBox="0 0 127 31" fill="none" xmlns="http://www.w3.org/2000/svg">
<g clip-path="url(#clip0_36_29)">
<path fill-rule="evenodd" clip-rule="evenodd" d="M1.44787 1.50115C1.12374 1.82727 1.01526 2.47818 1.01526 3.02127V26.8186C1.01526 27.3624 1.23156 27.9055 1.44787 28.3401L1.55635 28.4486L14.9658 15.0837V14.7576L1.44853 1.50049L1.44787 1.50115Z" fill="url(#paint0_linear_36_29)"/>
<path fill-rule="evenodd" clip-rule="evenodd" d="M19.3994 19.4297L14.9655 14.9745V14.6484L19.3994 10.1939L19.5072 10.3031L24.8063 13.3453C26.3204 14.2145 26.3204 15.6275 24.8063 16.4967L19.3994 19.4304V19.4297Z" fill="url(#paint1_linear_36_29)"/>
<path fill-rule="evenodd" clip-rule="evenodd" d="M19.5074 19.4297L14.8578 14.866L1.44836 28.3387C2.09727 28.8825 3.07031 28.8825 3.71922 28.4479L19.5074 19.4297Z" fill="url(#paint2_linear_36_29)"/>
<path fill-rule="evenodd" clip-rule="evenodd" d="M19.5072 10.3024L3.61191 1.39201C2.96233 0.957402 1.98797 0.957402 1.33972 1.50116L14.857 14.8667L19.5072 10.303V10.3024Z" fill="url(#paint3_linear_36_29)"/>
<path fill-rule="evenodd" clip-rule="evenodd" d="M41.5682 4.32574C41.5682 5.08647 41.2434 5.95567 40.8108 6.49876C40.4984 6.81066 40.1274 7.05768 39.7192 7.22559C39.311 7.39351 38.8735 7.47899 38.4321 7.47712C37.5669 7.47712 36.5932 7.151 36.0528 6.49876C35.296 5.84652 34.9713 4.97798 34.9713 4.10811C34.9713 3.13042 35.296 2.26121 35.945 1.71812C36.5932 1.06589 37.4584 0.631282 38.3236 0.739766C38.7562 0.739766 39.1888 0.848251 39.6214 1.06589C39.9456 1.28352 40.3782 1.392 40.703 1.82661L40.1619 2.15273C39.6741 1.6657 39.0129 1.39211 38.3236 1.392C37.5669 1.392 36.918 1.71812 36.3769 2.26121C35.8915 2.75335 35.6197 3.41691 35.6202 4.10811C35.6202 4.76035 35.945 5.52107 36.3769 5.95567C36.8649 6.44287 37.5263 6.71647 38.2158 6.7164C38.9725 6.7164 39.5136 6.39028 40.0541 5.95567C40.3782 5.52107 40.5945 4.97732 40.703 4.54271H38.3236V3.78266H41.4597C41.5682 3.99962 41.5682 4.21726 41.5682 4.32574ZM46.5418 1.60964H43.6227V3.78266H46.2184V4.54271H43.6227V6.60791H46.5418V7.36797H42.7568V0.848251H46.5418V1.60964ZM50.0027 7.36797H49.1375V1.60964H47.2992V0.848251H51.7331V1.60964H49.8949V7.36863L50.0027 7.36797ZM55.0855 7.36797V0.848251H55.9507V7.25948C55.8422 7.36797 55.0855 7.36797 55.0855 7.36797ZM58.762 7.36797V1.60964H56.9244V0.848251H61.3583V1.60964H59.52C59.6278 1.60964 59.6278 7.36863 59.6278 7.36863H58.7626L58.762 7.36797ZM69.9006 6.49876C68.6028 7.80324 66.5482 7.80324 65.0341 6.49876C64.4062 5.86199 64.0564 5.00234 64.0611 4.10811C64.0611 3.2389 64.3852 2.26121 65.0341 1.71812C66.4404 0.305163 68.4949 0.305163 69.9006 1.60897C70.5284 2.24574 70.8783 3.10539 70.8736 3.99962C70.8736 4.97798 70.5495 5.84719 69.9006 6.49876ZM65.683 5.95567C66.656 6.93403 68.2786 6.93403 69.1439 5.95567C69.6294 5.46337 69.9013 4.79954 69.9006 4.10811C69.9006 3.45587 69.5758 2.8043 69.1439 2.26121C68.1702 1.28285 66.5482 1.28285 65.683 2.26121C65.1977 2.75335 64.9258 3.41691 64.9263 4.10811C64.9263 4.76035 65.2504 5.41259 65.683 5.95567ZM72.0636 7.36797V0.848251H73.1445L76.2805 5.84652V0.848251H77.1458V7.25948H76.2805L72.9282 1.93509V7.15033L72.063 7.36797H72.0636Z" fill="white" stroke="white" stroke-width="0.560673"/>
<path fill-rule="evenodd" clip-rule="evenodd" d="M63.9527 16.7129C61.3571 16.7129 59.411 18.7775 59.5195 21.3851C59.6273 23.9934 61.574 25.9494 64.169 25.8403C66.6562 25.8403 68.6029 23.7757 68.6029 21.2766C68.6029 18.7775 66.6562 16.7129 63.9527 16.7129ZM63.9527 24.1018C62.4393 24.211 61.1414 23.0157 61.033 21.4942C60.9251 19.9728 62.1145 18.669 63.6286 18.5605C65.1427 18.4513 66.4405 19.6467 66.5484 21.1681V21.3857C66.6562 22.798 65.4668 24.1018 63.9527 24.1018ZM53.8963 16.7129C51.3006 16.7129 49.3539 18.7775 49.4624 21.3851C49.4624 23.9934 51.5169 25.9494 54.1126 25.8403C56.5997 25.8403 58.5458 23.7757 58.5458 21.2766C58.5458 18.7775 56.4912 16.7129 53.8963 16.7129ZM53.8963 24.1018C52.3821 24.211 51.0843 23.0157 50.9765 21.4942C50.868 19.9728 52.0574 18.669 53.5721 18.5605C55.0856 18.4513 56.3834 19.6467 56.4912 21.1681V21.3857C56.4912 22.798 55.4097 24.1018 53.8956 24.1018H53.8963ZM41.8924 18.1252V20.0819H46.6511C46.5426 21.0596 46.2185 21.9288 45.5689 22.5811C44.5959 23.5588 43.2981 24.1018 42.0009 23.9934C39.189 23.8849 37.0259 21.3857 37.1344 18.5605C37.2422 15.9522 39.4053 13.6707 42.0009 13.6707C43.2987 13.6707 44.5966 14.1053 45.4611 15.083L46.8667 13.7792C45.5689 12.4747 43.7307 11.8231 42.0009 11.8231C38.1075 11.6062 34.8636 14.7569 34.6466 18.669C34.431 22.5811 37.567 25.8403 41.4598 26.0579H42.0009C43.8392 26.1664 45.6774 25.4057 46.9752 24.1018C48.273 22.4719 48.9213 20.408 48.5972 18.3429H41.8924V18.1259V18.1252ZM90.988 19.6467C90.4475 17.9082 88.8249 16.8214 86.9867 16.7129C84.608 16.7129 82.6606 18.5605 82.6606 21.059V21.2766C82.5528 23.7757 84.4995 25.8403 86.9867 25.9487H87.203C88.7171 25.9487 90.2313 25.1887 91.0965 23.9934L89.4739 22.9065C89.0412 23.6672 88.176 24.1018 87.203 24.1018C86.7301 24.1031 86.2664 23.9713 85.8649 23.7216C85.4633 23.4719 85.1401 23.1142 84.9321 22.6896L91.0958 20.0813L90.988 19.6467ZM84.7158 21.1681C84.608 19.7558 85.6889 18.5605 87.0952 18.5605H87.203C87.9597 18.4513 88.6086 18.8866 88.9334 19.5388L84.7158 21.1681ZM79.633 25.6233H81.5798V12.1493H79.633V25.6233ZM76.3892 17.7998C75.6318 17.1475 74.7672 16.7129 73.7935 16.7129C71.1979 16.8214 69.3603 18.9951 69.4681 21.6027C69.5759 23.9934 71.4148 25.8403 73.7942 25.9487C74.7672 25.9487 75.6318 25.6233 76.2807 24.8626H76.3892V25.5148C76.6055 26.8186 75.7403 28.0139 74.4424 28.1224H74.0098C72.9283 28.1224 72.0638 27.4702 71.6311 26.4925L69.9007 27.2532C70.5496 28.8832 72.1716 29.97 74.0098 29.97C76.3892 29.97 78.3359 28.557 78.3359 25.1887V17.039H76.3892V17.7998ZM74.0098 24.1025C72.4964 23.9934 71.4142 22.6896 71.4142 21.1681C71.5227 19.7558 72.6042 18.5605 74.0098 18.5605C75.4161 18.669 76.6055 19.7558 76.497 21.2766V21.3857C76.6055 22.9065 75.5239 24.1018 74.0098 24.1018V24.1025ZM100.396 12.1493H95.5297V25.6233H97.4764V20.5159H100.288C102.559 20.7335 104.505 18.8866 104.722 16.6044C104.938 14.3223 103.1 12.3669 100.828 12.1493H100.396H100.396ZM100.396 18.669H97.5842V13.9968H100.396C101.694 13.9968 102.776 15.083 102.776 16.2783C102.776 17.5828 101.802 18.669 100.396 18.669ZM113.048 16.7129C111.535 16.6044 110.128 17.4736 109.48 18.7775L111.318 19.5382C111.643 18.8859 112.399 18.4513 113.157 18.5598C114.238 18.4513 115.211 19.2121 115.32 20.2989V20.4074C114.671 20.0813 113.913 19.8643 113.157 19.9728C111.318 19.9728 109.263 21.0596 109.263 23.0157C109.372 24.7541 110.777 26.0579 112.616 25.9494H112.724C113.806 26.0579 114.671 25.5148 115.32 24.6449H115.428V25.7318H117.374V20.5159C117.158 18.1259 115.319 16.7129 113.048 16.7129ZM112.724 24.1018C111.967 24.211 111.318 23.7757 111.102 23.0157C111.102 21.9288 112.183 21.6027 113.265 21.6027C113.913 21.6027 114.563 21.8203 115.103 22.0373C114.995 23.2326 113.913 24.1018 112.724 24.1018ZM124.187 17.039L121.808 22.798L119.429 17.039H117.266L120.835 25.1887L118.78 29.7524H120.943L126.566 17.039H124.187ZM106.019 25.6233H107.966V12.1493H106.019V25.6233Z" fill="white"/>
</g>
<defs>
<linearGradient id="paint0_linear_36_29" x1="13.595" y1="26.9591" x2="-7.84254" y2="21.2408" gradientUnits="userSpaceOnUse">
<stop stop-color="#4998D3"/>
<stop offset="0.01" stop-color="#4A99D3"/>
<stop offset="0.26" stop-color="#42BAEB"/>
<stop offset="0.51" stop-color="#41C7F2"/>
<stop offset="0.76" stop-color="#56C9E9"/>
<stop offset="1" stop-color="#5BCAE8"/>
</linearGradient>
<linearGradient id="paint1_linear_36_29" x1="26.6623" y1="14.8504" x2="0.493789" y2="14.8504" gradientUnits="userSpaceOnUse">
<stop stop-color="#FEE000"/>
<stop offset="0.41" stop-color="#FEBD11"/>
<stop offset="0.78" stop-color="#FAA51A"/>
<stop offset="1" stop-color="#F99B1C"/>
</linearGradient>
<linearGradient id="paint2_linear_36_29" x1="7.87556" y1="21.289" x2="-9.32084" y2="-7.60415" gradientUnits="userSpaceOnUse">
<stop stop-color="#EF4149"/>
<stop offset="1" stop-color="#C31E63"/>
</linearGradient>
<linearGradient id="paint3_linear_36_29" x1="-10.9571" y1="27.214" x2="-3.46123" y2="14.255" gradientUnits="userSpaceOnUse">
<stop stop-color="#32A072"/>
<stop offset="0.07" stop-color="#2CA772"/>
<stop offset="0.48" stop-color="#4BBA71"/>
<stop offset="0.8" stop-color="#5EBD6B"/>
<stop offset="1" stop-color="#66BE69"/>
</linearGradient>
<clipPath id="clip0_36_29">
<rect width="126.454" height="29.9497" fill="white" transform="translate(0.552612 0.0789185)"/>
</clipPath>
</defs>
</svg>
