<svg width="120" height="33" viewBox="0 0 120 33" fill="none" xmlns="http://www.w3.org/2000/svg">
<g clip-path="url(#clip0_36_25)">
<path fill-rule="evenodd" clip-rule="evenodd" d="M19.3486 15.222C19.3173 11.7905 22.1978 10.1206 22.3302 10.0427C20.6983 7.69667 18.1699 7.37654 17.2814 7.35059C15.1576 7.13029 13.0977 8.60382 12.0156 8.60382C10.9121 8.60382 9.24687 7.37255 7.45055 7.40849C5.14043 7.4431 2.97873 8.76288 1.79338 10.8114C-0.653175 14.9891 1.17176 21.1281 3.51516 24.5051C4.68786 26.1583 6.05756 28.0052 7.85121 27.94C9.6056 27.8688 10.2612 26.8372 12.3783 26.8372C14.4761 26.8372 15.0917 27.94 16.9206 27.8987C18.8041 27.8688 19.9888 26.2375 21.1203 24.569C22.4753 22.6735 23.0197 20.8067 23.041 20.7108C22.9971 20.6955 19.3845 19.3358 19.3486 15.222ZM15.8937 5.12965C16.8375 3.96494 17.483 2.38226 17.304 0.774963C15.9383 0.834863 14.2298 1.70673 13.2468 2.84482C12.3763 3.84847 11.5989 5.49237 11.7999 7.03844C13.334 7.15159 14.9094 6.27506 15.8937 5.12965ZM40.5396 21.7937L39.325 18.0932C39.1966 17.7152 38.9556 16.8247 38.6002 15.4237H38.557C38.3416 16.3166 38.1142 17.2065 37.8748 18.0932L36.6815 21.7937H40.5396ZM44.7393 27.7024H42.2874L40.9443 23.5401H36.2761L34.9963 27.7024H32.609L37.2345 13.5315H40.0911L44.7393 27.7024ZM54.2892 22.5511C54.2892 21.5561 54.0623 20.7361 53.6064 20.0912C53.1092 19.4177 52.4403 19.0816 51.6031 19.0816C51.0347 19.0816 50.5182 19.2686 50.0577 19.6386C49.5958 20.0113 49.2936 20.4972 49.1525 21.1002C49.0806 21.3817 49.0454 21.6113 49.0454 21.7923V23.4961C49.0454 24.2396 49.2763 24.8672 49.7382 25.3796C50.2001 25.8915 50.8004 26.147 51.5392 26.147C52.4064 26.147 53.0806 25.8169 53.5638 25.1587C54.047 24.4998 54.2892 23.6306 54.2892 22.5511ZM56.634 22.4679C56.634 24.2056 56.1581 25.5793 55.2057 26.5876C54.3525 27.4854 53.2936 27.934 52.029 27.934C50.6646 27.934 49.6843 27.4502 49.0873 26.4831H49.044V31.8661H46.7419V20.8479C46.7419 19.7558 46.7133 18.6343 46.6567 17.4842H48.6813L48.8098 19.1035H48.853C49.6204 17.8836 50.7858 17.2746 52.3491 17.2746C53.5711 17.2746 54.5914 17.7505 55.4073 18.7035C56.226 19.6573 56.634 20.9118 56.634 22.4679ZM66.2052 22.5511C66.2052 21.5561 65.9776 20.7361 65.5217 20.0912C65.0239 19.4177 64.3583 19.0816 63.5191 19.0816C62.95 19.0816 62.4349 19.2686 61.973 19.6386C61.5111 20.0113 61.2096 20.4972 61.0678 21.1002C60.998 21.3817 60.9614 21.6113 60.9614 21.7923V23.4961C60.9614 24.2396 61.1923 24.8672 61.6522 25.3796C62.1147 25.8901 62.7144 26.147 63.4558 26.147C64.3224 26.147 64.9972 25.8169 65.4798 25.1587C65.9636 24.4998 66.2052 23.6306 66.2052 22.5511ZM68.5506 22.4679C68.5506 24.2056 68.0741 25.5793 67.121 26.5876C66.2691 27.4854 65.2096 27.934 63.9457 27.934C62.5813 27.934 61.6003 27.4502 61.0039 26.4831H60.9614V31.8661H58.6592V20.8479C58.6592 19.7558 58.6306 18.6343 58.574 17.4842H60.5986L60.7271 19.1035H60.7703C61.5371 17.8836 62.7018 17.2746 64.2665 17.2746C65.4871 17.2746 66.5074 17.7505 67.326 18.7035C68.1413 19.6573 68.5506 20.9118 68.5506 22.4679ZM81.8736 23.7284C81.8736 24.9337 81.4489 25.9147 80.597 26.6721C79.6613 27.4994 78.3581 27.9127 76.6836 27.9127C75.1376 27.9127 73.8976 27.6186 72.9599 27.0295L73.493 25.1374C74.5039 25.7404 75.6127 26.0425 76.8207 26.0425C77.6873 26.0425 78.3621 25.8489 78.8473 25.4635C79.3298 25.0775 79.5708 24.5604 79.5708 23.9148C79.5708 23.3397 79.3718 22.8552 78.9738 22.4625C78.5771 22.0699 77.9156 21.7038 76.9911 21.3664C74.4753 20.4413 73.2188 19.0855 73.2188 17.3032C73.2188 16.1385 73.6594 15.1828 74.5412 14.4393C75.4197 13.6953 76.5931 13.3239 78.0593 13.3239C79.3664 13.3239 80.4526 13.5482 81.3198 13.9961L80.7441 15.8477C79.9342 15.413 79.019 15.1954 77.9941 15.1954C77.1848 15.1954 76.5518 15.3924 76.0986 15.7844C75.7152 16.1352 75.5229 16.5618 75.5229 17.0676C75.5229 17.628 75.7425 18.0912 76.1825 18.4553C76.5658 18.792 77.262 19.1561 78.2723 19.5488C79.5089 20.0399 80.4167 20.6136 81.001 21.2719C81.5827 21.9281 81.8729 22.7494 81.8729 23.7284H81.8736ZM89.4841 19.188H86.947V24.149C86.947 25.4109 87.3936 26.0412 88.2901 26.0412C88.7014 26.0412 89.0422 26.0066 89.3124 25.936L89.3763 27.6598C88.9224 27.8275 88.3254 27.9114 87.586 27.9114C86.6768 27.9114 85.9667 27.6379 85.4536 27.0914C84.9431 26.5444 84.6862 25.6259 84.6862 24.3361V19.186H83.1747V17.4822H84.6855V15.6107L86.947 14.9385V17.4822H89.4841V19.188ZM98.5436 22.583C98.5436 21.6406 98.3392 20.8326 97.9259 20.1577C97.4434 19.3424 96.7532 18.9358 95.8594 18.9358C94.9343 18.9358 94.2315 19.3431 93.749 20.1577C93.335 20.8333 93.1313 21.6539 93.1313 22.6256C93.1313 23.568 93.335 24.376 93.749 25.0489C94.2461 25.8648 94.9416 26.2715 95.8388 26.2715C96.7173 26.2715 97.4075 25.8562 97.9053 25.0276C98.3299 24.3407 98.5436 23.5241 98.5436 22.583ZM100.932 22.5098C100.932 24.0805 100.476 25.3697 99.5672 26.378C98.6135 27.4162 97.3482 27.934 95.7709 27.934C94.2508 27.934 93.0401 27.4362 92.1377 26.4419C91.2352 25.4475 90.7839 24.1923 90.7839 22.6788C90.7839 21.0948 91.2485 19.7983 92.1803 18.7894C93.1094 17.7804 94.3639 17.2753 95.9413 17.2753C97.4614 17.2753 98.6847 17.7724 99.6085 18.7681C100.491 19.7345 100.932 20.981 100.932 22.5091V22.5098ZM108.414 19.4809C108.174 19.4381 107.931 19.4169 107.688 19.4177C106.878 19.4177 106.253 19.7192 105.811 20.3228C105.429 20.8552 105.236 21.5288 105.236 22.3407V27.7024H102.936L102.957 20.7022C102.957 19.5241 102.928 18.4526 102.871 17.4849H104.876L104.96 19.4403H105.024C105.267 18.7681 105.65 18.2277 106.175 17.8217C106.687 17.4563 107.242 17.2746 107.839 17.2746C108.052 17.2746 108.243 17.2892 108.414 17.3159V19.4809ZM116.513 21.5208C116.529 20.8486 116.378 20.2669 116.067 19.7757C115.668 19.1441 115.056 18.8293 114.232 18.8293C113.48 18.8293 112.868 19.1368 112.4 19.7544C112.017 20.2456 111.789 20.8339 111.719 21.5201H116.513V21.5208ZM118.708 22.1098C118.708 22.5165 118.682 22.8599 118.625 23.1394H111.719C111.745 24.149 112.08 24.9211 112.72 25.4535C113.303 25.9294 114.055 26.1683 114.979 26.1683C116.002 26.1683 116.935 26.0073 117.773 25.6845L118.134 27.2605C117.154 27.6824 115.996 27.8928 114.661 27.8928C113.055 27.8928 111.793 27.4255 110.876 26.4938C109.96 25.562 109.501 24.3108 109.501 22.7414C109.501 21.2007 109.927 19.9175 110.782 18.8945C111.676 17.8017 112.883 17.2553 114.404 17.2553C115.897 17.2553 117.027 17.801 117.795 18.8939C118.403 19.7617 118.708 20.8353 118.708 22.1098ZM38.5849 4.84346C38.5849 4.03149 38.3673 3.40854 37.9307 2.97394C37.4948 2.54066 36.8578 2.3237 36.0186 2.3237C35.6625 2.3237 35.3597 2.34699 35.1074 2.39558V7.60216C35.2472 7.62346 35.5014 7.63278 35.8722 7.63278C36.7374 7.63278 37.4062 7.39518 37.8768 6.92064C38.348 6.44544 38.5849 5.75327 38.5849 4.84413V4.84346ZM39.7783 4.81285C39.7783 6.06674 39.3969 7.00983 38.6362 7.64343C37.9307 8.22845 36.929 8.52129 35.6312 8.52129C35.0783 8.52598 34.5256 8.4982 33.976 8.43809V1.58893C34.6208 1.48952 35.2724 1.44123 35.9247 1.44451C37.1613 1.44451 38.0931 1.70939 38.7214 2.23984C39.4255 2.83883 39.7783 3.69672 39.7783 4.81218V4.81285ZM44.9303 5.94428C44.9303 5.48106 44.8291 5.08373 44.6268 4.75295C44.3899 4.35229 44.0518 4.15196 43.6125 4.15196C43.1579 4.15196 42.8118 4.35162 42.5742 4.75228C42.3719 5.08373 42.2714 5.48705 42.2714 5.96425C42.2714 6.42747 42.3726 6.8248 42.5749 7.15558C42.8198 7.55624 43.1606 7.75657 43.6012 7.75657C44.0338 7.75657 44.3725 7.55291 44.6161 7.14493C44.8258 6.8075 44.9303 6.4075 44.9303 5.94428ZM46.1043 5.90768C46.1043 6.67971 45.8807 7.31199 45.4334 7.80849C44.9649 8.31896 44.3439 8.5732 43.5692 8.5732C42.8218 8.5732 42.2268 8.32961 41.7829 7.83977C41.3403 7.35059 41.1193 6.73429 41.1193 5.99087C41.1193 5.21351 41.347 4.57591 41.8049 4.08075C42.2628 3.58558 42.8777 3.33733 43.6531 3.33733C44.4005 3.33733 45.0008 3.58092 45.4554 4.06943C45.8873 4.54463 46.1043 5.15827 46.1043 5.90768ZM54.5861 3.43916L52.9934 8.45939H51.9571L51.2969 6.27972C51.1327 5.7465 50.9963 5.20513 50.8883 4.65778H50.8676C50.7699 5.20747 50.6332 5.74949 50.4583 6.27972L49.7575 8.45939H48.7099L47.2124 3.43916H48.3752L48.9509 5.82581C49.09 6.3902 49.2044 6.92796 49.2963 7.43644H49.3162C49.4008 7.01715 49.5405 6.48271 49.7369 5.83646L50.459 3.44049H51.3808L52.0729 5.78522C52.2407 6.35759 52.3764 6.908 52.4809 7.43777H52.5122C52.5977 6.88108 52.7132 6.32942 52.8583 5.78522L53.4759 3.44049H54.5867V3.43916H54.5861ZM60.4515 8.45939H59.3201V5.58422C59.3201 4.69837 58.9793 4.25512 58.2952 4.25512C57.9591 4.25512 57.6875 4.37625 57.4772 4.62051C57.2703 4.85903 57.1585 5.16536 57.1631 5.48106V8.45806H56.0316V4.87408C56.0316 4.43282 56.0177 3.95496 55.9904 3.43716H56.9847L57.0379 4.22251H57.0692C57.201 3.97825 57.3973 3.77659 57.6549 3.61619C57.9638 3.42786 58.3194 3.33009 58.6812 3.334C59.1564 3.334 59.5511 3.48508 59.8659 3.78857C60.2565 4.16061 60.4515 4.71501 60.4515 5.45244V8.45939ZM62.4415 8.45939H63.5723V1.13636H62.4415V8.45939ZM69.0591 5.94428C69.0591 5.48106 68.9573 5.08373 68.7556 4.75295C68.5193 4.35229 68.1799 4.15196 67.742 4.15196C67.2861 4.15196 66.9406 4.35162 66.7037 4.75228C66.5014 5.08373 66.4009 5.48705 66.4009 5.96425C66.4009 6.42747 66.502 6.8248 66.7044 7.15558C66.9493 7.55624 67.2901 7.75657 67.7307 7.75657C68.1633 7.75657 68.5007 7.55291 68.7449 7.14493C68.9553 6.8075 69.0591 6.4075 69.0591 5.94428ZM70.2338 5.90768C70.2338 6.67971 70.0102 7.31199 69.5629 7.80849C69.0944 8.31896 68.4727 8.5732 67.6987 8.5732C66.95 8.5732 66.3556 8.32961 65.913 7.83977C65.4698 7.35059 65.2488 6.73429 65.2488 5.99087C65.2488 5.21351 65.4764 4.57591 65.9343 4.08075C66.3922 3.58558 67.0072 3.33733 67.7819 3.33733C68.53 3.33733 69.129 3.58092 69.5849 4.06943C70.0168 4.54463 70.2338 5.15827 70.2338 5.90768ZM74.5352 6.73362V5.96092C73.2867 5.93962 72.663 6.27706 72.663 6.97256C72.663 7.23412 72.7342 7.43045 72.88 7.5609C73.0258 7.69201 73.2114 7.75724 73.4324 7.75724C73.6807 7.75724 73.9129 7.67937 74.1246 7.52496C74.2524 7.43686 74.3566 7.31878 74.4282 7.18106C74.4998 7.04334 74.5365 6.89017 74.5352 6.73495V6.73362ZM75.7099 8.46006H74.6936L74.6098 7.8817H74.5778C74.2304 8.34292 73.7352 8.57387 73.0916 8.57387C72.6111 8.57387 72.2224 8.42146 71.9296 8.1193C71.664 7.84442 71.5316 7.50233 71.5316 7.09701C71.5316 6.48338 71.7905 6.01616 72.3116 5.69271C72.8321 5.36858 73.5642 5.21018 74.5066 5.2175V5.12299C74.5066 4.46144 74.1552 4.13133 73.4497 4.13133C72.9479 4.13133 72.5046 4.25645 72.1233 4.50337L71.893 3.7706C72.3655 3.48175 72.9499 3.33733 73.6387 3.33733C74.9692 3.33733 75.636 4.0295 75.636 5.41384V7.26207C75.636 7.76389 75.6613 8.16322 75.7093 8.45939L75.7099 8.46006ZM80.9664 6.34228V5.50502C80.9664 5.3606 80.9558 5.24346 80.9351 5.15361C80.8742 4.89035 80.7308 4.65344 80.5258 4.47741C80.316 4.296 80.0464 4.19878 79.7691 4.20454C79.3471 4.20454 79.017 4.36893 78.7734 4.70037C78.5332 5.03115 78.4107 5.45444 78.4107 5.9709C78.4107 6.46674 78.5265 6.86939 78.7588 7.17954C79.0037 7.50965 79.3338 7.67471 79.7478 7.67471C80.1192 7.67471 80.416 7.53694 80.6416 7.2614C80.8599 7.0065 80.9664 6.70035 80.9664 6.34228ZM82.1391 8.45873H81.1348L81.0816 7.65341H81.0509C80.7302 8.26638 80.1837 8.5732 79.4164 8.5732C78.8027 8.5732 78.2916 8.3356 77.8876 7.86106C77.4823 7.38586 77.2806 6.76956 77.2806 6.01217C77.2806 5.2002 77.5002 4.5413 77.9402 4.03882C78.3661 3.57027 78.8892 3.336 79.5109 3.336C80.1944 3.336 80.6729 3.56295 80.9451 4.01752H80.9664V1.13636H82.0992V7.10766C82.0992 7.59617 82.1125 8.04675 82.1391 8.46006V8.45873ZM90.6435 5.94428C90.6435 5.48106 90.5423 5.08373 90.34 4.75295C90.1017 4.35229 89.765 4.15196 89.3244 4.15196C88.8705 4.15196 88.5257 4.35162 88.2861 4.75228C88.0838 5.08373 87.9833 5.48705 87.9833 5.96425C87.9833 6.42747 88.0845 6.8248 88.2868 7.15558C88.5317 7.55624 88.8725 7.75657 89.3137 7.75657C89.745 7.75657 90.0858 7.55291 90.3294 7.14493C90.5377 6.8075 90.6435 6.4075 90.6435 5.94428ZM91.8162 5.90768C91.8162 6.67971 91.5926 7.31199 91.1453 7.80849C90.6768 8.31896 90.0572 8.5732 89.2811 8.5732C88.535 8.5732 87.94 8.32961 87.4955 7.83977C87.0529 7.35059 86.8312 6.73429 86.8312 5.99087C86.8312 5.21351 87.0589 4.57591 87.5168 4.08075C87.9747 3.58558 88.5903 3.33733 89.3663 3.33733C90.1124 3.33733 90.7141 3.58092 91.1673 4.06943C91.5992 4.54463 91.8162 5.15827 91.8162 5.90768ZM97.9007 8.45939H96.7692V5.58422C96.7692 4.69837 96.4285 4.25512 95.7429 4.25512C95.4068 4.25512 95.136 4.37625 94.9263 4.62051C94.719 4.85877 94.6071 5.16527 94.6122 5.48106V8.45806H93.4801V4.87408C93.4801 4.43282 93.4668 3.95496 93.4401 3.43716H94.4331L94.4864 4.22251H94.5177C94.6508 3.97825 94.8465 3.77659 95.1034 3.61619C95.4126 3.42798 95.7683 3.33021 96.1303 3.334C96.6042 3.334 96.9995 3.48508 97.3136 3.78857C97.7063 4.16061 97.9 4.71501 97.9 5.45244V8.45939H97.9007ZM105.515 4.27509H104.269V6.71366C104.269 7.33395 104.49 7.64343 104.928 7.64343C105.132 7.64343 105.3 7.62679 105.433 7.59152L105.462 8.43809C105.238 8.52129 104.945 8.56255 104.583 8.56255C104.136 8.56255 103.789 8.42811 103.537 8.1599C103.284 7.89168 103.159 7.44044 103.159 6.80683V4.27509H102.415V3.43916H103.159V2.51937L104.268 2.18925V3.43849H105.514V4.27509H105.515H105.515ZM111.504 8.45939H110.372V5.60552C110.372 4.7057 110.031 4.25512 109.347 4.25512C108.823 4.25512 108.465 4.51601 108.268 5.0378C108.231 5.16825 108.213 5.30347 108.215 5.43913V8.45806H107.085V1.13636H108.216V4.16128H108.237C108.594 3.61087 109.104 3.336 109.766 3.336C110.235 3.336 110.623 3.48708 110.931 3.79057C111.313 4.1686 111.506 4.73099 111.506 5.4744V8.45939H111.504ZM116.604 5.42316C116.613 5.09238 116.539 4.80686 116.385 4.56593C116.189 4.25645 115.89 4.10071 115.484 4.10071C115.115 4.10071 114.814 4.25179 114.584 4.55528C114.392 4.80697 114.276 5.10794 114.249 5.42316H116.605H116.604ZM117.684 5.71201C117.684 5.91167 117.669 6.08005 117.642 6.21782H114.249C114.263 6.71366 114.426 7.09169 114.74 7.35392C115.027 7.58819 115.397 7.70533 115.851 7.70533C116.352 7.70533 116.81 7.62679 117.223 7.46772L117.4 8.24309C116.917 8.44941 116.35 8.55323 115.692 8.55323C114.903 8.55323 114.283 8.32429 113.834 7.86639C113.383 7.40849 113.159 6.79352 113.159 6.02282C113.159 5.26542 113.367 4.63515 113.787 4.13266C114.226 3.59623 114.819 3.32734 115.567 3.32734C116.299 3.32734 116.855 3.59623 117.231 4.13266C117.534 4.55861 117.683 5.08572 117.683 5.71201" fill="white"/>
</g>
<defs>
<clipPath id="clip0_36_25">
<rect width="119.133" height="31.9464" fill="white" transform="translate(0.131653 0.144714)"/>
</clipPath>
</defs>
</svg>
