<svg width="32" height="27" viewBox="0 0 32 27" fill="none" xmlns="http://www.w3.org/2000/svg">
<path fill-rule="evenodd" clip-rule="evenodd" d="M15.7831 7.47081L15.8514 8.59756L14.7126 8.45959C10.5672 7.9307 6.94562 6.1371 3.87071 3.12477L2.36743 1.63011L1.98022 2.73386C1.16024 5.19431 1.68411 7.79273 3.39239 9.54035C4.30348 10.5061 4.09848 10.6441 2.52686 10.0692C1.98022 9.88527 1.5019 9.7473 1.45634 9.81628C1.2969 9.97725 1.84355 12.0698 2.27632 12.8976C2.86852 14.0473 4.07571 15.1741 5.39678 15.8409L6.51285 16.3698L5.19178 16.3928C3.91627 16.3928 3.87071 16.4158 4.00737 16.8987C4.46292 18.3934 6.2623 19.98 8.26669 20.6699L9.67886 21.1528L8.4489 21.8886C6.62674 22.9464 4.48569 23.5442 2.34465 23.5902C1.31968 23.6132 0.476929 23.7052 0.476929 23.7742C0.476929 24.0041 3.25573 25.2918 4.8729 25.7977C9.72442 27.2924 15.487 26.6485 19.8147 24.0961C22.8896 22.2795 25.9645 18.6693 27.3994 15.1741C28.1738 13.3115 28.9483 9.90826 28.9483 8.27563C28.9483 7.21786 29.0166 7.07989 30.2921 5.81517C31.0438 5.07934 31.7498 4.27452 31.8865 4.04457C32.1143 3.60767 32.0915 3.60767 30.9299 3.99858C28.9938 4.68842 28.7205 4.59645 29.6771 3.56168C30.3832 2.82584 31.226 1.49214 31.226 1.10122C31.226 1.03224 30.8843 1.14721 30.4971 1.35417C30.0871 1.58412 29.176 1.92904 28.4927 2.13599L27.2628 2.52691L26.1467 1.76807C25.5317 1.35417 24.6662 0.894269 24.2106 0.7563C23.049 0.434371 21.2724 0.480361 20.2246 0.848279C17.3775 1.88305 15.5781 4.55046 15.7831 7.47081Z" fill="white"/>
</svg>
