<svg width="37" height="27" viewBox="0 0 37 27" fill="none" xmlns="http://www.w3.org/2000/svg">
<path fill-rule="evenodd" clip-rule="evenodd" d="M32.282 1.31874C33.8415 1.74668 35.0697 3.0076 35.4865 4.60886C36.2439 7.51094 36.2439 13.5662 36.2439 13.5662C36.2439 13.5662 36.2439 19.6212 35.4865 22.5235C35.0697 24.1247 33.8415 25.3857 32.282 25.8138C29.4558 26.5913 18.122 26.5913 18.122 26.5913C18.122 26.5913 6.78811 26.5913 3.96171 25.8138C2.40219 25.3857 1.17401 24.1247 0.757209 22.5235C0 19.6212 0 13.5662 0 13.5662C0 13.5662 0 7.51094 0.757209 4.60886C1.17401 3.0076 2.40219 1.74668 3.96171 1.31874C6.78811 0.541016 18.122 0.541016 18.122 0.541016C18.122 0.541016 29.4558 0.541016 32.282 1.31874ZM14.7246 8.4686V19.7948L23.7856 14.1319L14.7246 8.4686Z" fill="white"/>
</svg>
